# 3ds Max Wavefront OBJ Exporter v0.97b - (c)2007 guruware
# File Created: 23.11.2015 15:49:24

#
# object Box002
#

v  -40.0000 0.0000 80.0000
v  40.0000 0.0000 80.0000
v  -40.0000 0.0000 -80.0000
v  40.0000 0.0000 -80.0000
v  -40.0000 95.0000 80.0000
v  40.0000 95.0000 80.0000
v  -40.0000 95.0000 -80.0000
v  40.0000 95.0000 -80.0000
# 8 vertices

vn 0.0000 -1.0000 -0.0000
vn 0.0000 -1.0000 -0.0000
vn 0.0000 -1.0000 -0.0000
vn 0.0000 -1.0000 -0.0000
vn 0.0000 -1.0000 -0.0000
vn 0.0000 -1.0000 -0.0000
vn 0.0000 1.0000 -0.0000
vn 0.0000 1.0000 -0.0000
vn 0.0000 1.0000 -0.0000
vn 0.0000 1.0000 -0.0000
vn 0.0000 1.0000 -0.0000
vn 0.0000 1.0000 -0.0000
vn 0.0000 0.0000 1.0000
vn 0.0000 0.0000 1.0000
vn 0.0000 0.0000 1.0000
vn 0.0000 0.0000 1.0000
vn 0.0000 0.0000 1.0000
vn 0.0000 0.0000 1.0000
vn 1.0000 0.0000 -0.0000
vn 1.0000 0.0000 -0.0000
vn 1.0000 0.0000 -0.0000
vn 1.0000 0.0000 -0.0000
vn 1.0000 0.0000 -0.0000
vn 1.0000 0.0000 -0.0000
vn 0.0000 0.0000 -1.0000
vn 0.0000 0.0000 -1.0000
vn 0.0000 0.0000 -1.0000
vn 0.0000 0.0000 -1.0000
vn 0.0000 0.0000 -1.0000
vn 0.0000 0.0000 -1.0000
vn -1.0000 0.0000 -0.0000
vn -1.0000 0.0000 -0.0000
vn -1.0000 0.0000 -0.0000
vn -1.0000 0.0000 -0.0000
vn -1.0000 0.0000 -0.0000
vn -1.0000 0.0000 -0.0000
# 36 vertex normals

g Box002
f 1//1 3//2 4//3 
f 4//4 2//5 1//6 
f 5//7 6//8 8//9 
f 8//10 7//11 5//12 
f 1//13 2//14 6//15 
f 6//16 5//17 1//18 
f 2//19 4//20 8//21 
f 8//22 6//23 2//24 
f 4//25 3//26 7//27 
f 7//28 8//29 4//30 
f 3//31 1//32 5//33 
f 5//34 7//35 3//36 
# 12 faces

#
# object Cylinder001
#

v  0.0000 95.0000 -44.9440
v  25.0000 95.0000 -44.9440
v  23.4923 95.0000 -53.4945
v  19.1511 95.0000 -61.0137
v  12.5000 95.0000 -66.5946
v  4.3412 95.0000 -69.5642
v  -4.3412 95.0000 -69.5642
v  -12.5000 95.0000 -66.5946
v  -19.1511 95.0000 -61.0137
v  -23.4923 95.0000 -53.4945
v  -25.0000 95.0000 -44.9440
v  -23.4923 95.0000 -36.3935
v  -19.1511 95.0000 -28.8743
v  -12.5000 95.0000 -23.2934
v  -4.3412 95.0000 -20.3238
v  4.3412 95.0000 -20.3238
v  12.5000 95.0000 -23.2934
v  19.1511 95.0000 -28.8743
v  23.4923 95.0000 -36.3935
v  25.0000 115.0000 -44.9440
v  23.4923 115.0000 -53.4945
v  19.1511 115.0000 -61.0137
v  12.5000 115.0000 -66.5946
v  4.3412 115.0000 -69.5642
v  -4.3412 115.0000 -69.5642
v  -12.5000 115.0000 -66.5946
v  -19.1511 115.0000 -61.0137
v  -23.4923 115.0000 -53.4945
v  -25.0000 115.0000 -44.9440
v  -23.4923 115.0000 -36.3935
v  -19.1511 115.0000 -28.8743
v  -12.5000 115.0000 -23.2934
v  -4.3412 115.0000 -20.3238
v  4.3412 115.0000 -20.3238
v  12.5000 115.0000 -23.2934
v  19.1511 115.0000 -28.8743
v  23.4923 115.0000 -36.3935
v  0.0000 115.0000 -44.9440
# 38 vertices

vn 0.0000 -1.0000 -0.0000
vn 0.0000 -1.0000 -0.0000
vn 0.0000 -1.0000 -0.0000
vn 0.0000 -1.0000 -0.0000
vn 0.0000 -1.0000 -0.0000
vn 0.0000 -1.0000 -0.0000
vn 0.0000 -1.0000 -0.0000
vn 0.0000 -1.0000 -0.0000
vn 0.0000 -1.0000 -0.0000
vn 0.0000 -1.0000 -0.0000
vn 0.0000 -1.0000 -0.0000
vn 0.0000 -1.0000 -0.0000
vn 0.0000 -1.0000 -0.0000
vn 0.0000 -1.0000 -0.0000
vn 0.0000 -1.0000 -0.0000
vn 0.0000 -1.0000 -0.0000
vn 0.0000 -1.0000 -0.0000
vn 0.0000 -1.0000 -0.0000
vn 0.0000 -1.0000 -0.0000
vn 0.0000 -1.0000 -0.0000
vn 0.0000 -1.0000 -0.0000
vn 0.0000 -1.0000 -0.0000
vn 0.0000 -1.0000 -0.0000
vn 0.0000 -1.0000 -0.0000
vn 0.0000 -1.0000 -0.0000
vn 0.0000 -1.0000 -0.0000
vn 0.0000 -1.0000 -0.0000
vn 0.0000 -1.0000 -0.0000
vn 0.0000 -1.0000 -0.0000
vn 0.0000 -1.0000 -0.0000
vn 0.0000 -1.0000 -0.0000
vn 0.0000 -1.0000 -0.0000
vn 0.0000 -1.0000 -0.0000
vn 0.0000 -1.0000 -0.0000
vn 0.0000 -1.0000 -0.0000
vn 0.0000 -1.0000 -0.0000
vn 0.0000 -1.0000 -0.0000
vn 0.0000 -1.0000 -0.0000
vn 0.0000 -1.0000 -0.0000
vn 0.0000 -1.0000 -0.0000
vn 0.0000 -1.0000 -0.0000
vn 0.0000 -1.0000 -0.0000
vn 0.0000 -1.0000 -0.0000
vn 0.0000 -1.0000 -0.0000
vn 0.0000 -1.0000 -0.0000
vn 0.0000 -1.0000 -0.0000
vn 0.0000 -1.0000 -0.0000
vn 0.0000 -1.0000 -0.0000
vn 0.0000 -1.0000 -0.0000
vn 0.0000 -1.0000 -0.0000
vn 0.0000 -1.0000 -0.0000
vn 0.0000 -1.0000 -0.0000
vn 0.0000 -1.0000 -0.0000
vn 0.0000 -1.0000 -0.0000
vn 1.0000 0.0000 0.0000
vn 0.9397 0.0000 -0.3420
vn 1.0000 0.0000 0.0000
vn 1.0000 0.0000 0.0000
vn 0.9397 0.0000 -0.3420
vn 0.9397 0.0000 -0.3420
vn 0.9397 0.0000 -0.3420
vn 0.7660 0.0000 -0.6428
vn 0.9397 0.0000 -0.3420
vn 0.9397 0.0000 -0.3420
vn 0.7660 0.0000 -0.6428
vn 0.7660 0.0000 -0.6428
vn 0.7660 0.0000 -0.6428
vn 0.5000 0.0000 -0.8660
vn 0.7660 0.0000 -0.6428
vn 0.7660 0.0000 -0.6428
vn 0.5000 0.0000 -0.8660
vn 0.5000 0.0000 -0.8660
vn 0.5000 0.0000 -0.8660
vn 0.1736 0.0000 -0.9848
vn 0.5000 0.0000 -0.8660
vn 0.5000 0.0000 -0.8660
vn 0.1736 0.0000 -0.9848
vn 0.1736 0.0000 -0.9848
vn 0.1736 0.0000 -0.9848
vn -0.1736 0.0000 -0.9848
vn 0.1736 0.0000 -0.9848
vn 0.1736 0.0000 -0.9848
vn -0.1736 0.0000 -0.9848
vn -0.1736 0.0000 -0.9848
vn -0.1736 0.0000 -0.9848
vn -0.5000 0.0000 -0.8660
vn -0.1736 0.0000 -0.9848
vn -0.1736 0.0000 -0.9848
vn -0.5000 0.0000 -0.8660
vn -0.5000 0.0000 -0.8660
vn -0.5000 0.0000 -0.8660
vn -0.7660 0.0000 -0.6428
vn -0.5000 0.0000 -0.8660
vn -0.5000 0.0000 -0.8660
vn -0.7660 0.0000 -0.6428
vn -0.7660 0.0000 -0.6428
vn -0.7660 0.0000 -0.6428
vn -0.9397 0.0000 -0.3420
vn -0.7660 0.0000 -0.6428
vn -0.7660 0.0000 -0.6428
vn -0.9397 0.0000 -0.3420
vn -0.9397 0.0000 -0.3420
vn -0.9397 0.0000 -0.3420
vn -1.0000 0.0000 -0.0000
vn -0.9397 0.0000 -0.3420
vn -0.9397 0.0000 -0.3420
vn -1.0000 0.0000 -0.0000
vn -1.0000 0.0000 -0.0000
vn -1.0000 0.0000 -0.0000
vn -0.9397 0.0000 0.3420
vn -1.0000 0.0000 -0.0000
vn -1.0000 0.0000 -0.0000
vn -0.9397 0.0000 0.3420
vn -0.9397 0.0000 0.3420
vn -0.9397 0.0000 0.3420
vn -0.7660 0.0000 0.6428
vn -0.9397 0.0000 0.3420
vn -0.9397 0.0000 0.3420
vn -0.7660 0.0000 0.6428
vn -0.7660 0.0000 0.6428
vn -0.7660 0.0000 0.6428
vn -0.5000 0.0000 0.8660
vn -0.7660 0.0000 0.6428
vn -0.7660 0.0000 0.6428
vn -0.5000 0.0000 0.8660
vn -0.5000 0.0000 0.8660
vn -0.5000 0.0000 0.8660
vn -0.1736 0.0000 0.9848
vn -0.5000 0.0000 0.8660
vn -0.5000 0.0000 0.8660
vn -0.1736 0.0000 0.9848
vn -0.1736 0.0000 0.9848
vn -0.1736 0.0000 0.9848
vn 0.1736 0.0000 0.9848
vn -0.1736 0.0000 0.9848
vn -0.1736 0.0000 0.9848
vn 0.1736 0.0000 0.9848
vn 0.1736 0.0000 0.9848
vn 0.1736 0.0000 0.9848
vn 0.5000 0.0000 0.8660
vn 0.1736 0.0000 0.9848
vn 0.1736 0.0000 0.9848
vn 0.5000 0.0000 0.8660
vn 0.5000 0.0000 0.8660
vn 0.5000 0.0000 0.8660
vn 0.7660 0.0000 0.6428
vn 0.5000 0.0000 0.8660
vn 0.5000 0.0000 0.8660
vn 0.7660 0.0000 0.6428
vn 0.7660 0.0000 0.6428
vn 0.7660 0.0000 0.6428
vn 0.9397 0.0000 0.3420
vn 0.7660 0.0000 0.6428
vn 0.7660 0.0000 0.6428
vn 0.9397 0.0000 0.3420
vn 0.9397 0.0000 0.3420
vn 0.9397 0.0000 0.3420
vn 1.0000 0.0000 0.0000
vn 0.9397 0.0000 0.3420
vn 0.9397 0.0000 0.3420
vn 1.0000 0.0000 0.0000
vn 1.0000 0.0000 0.0000
vn 0.0000 1.0000 -0.0000
vn 0.0000 1.0000 -0.0000
vn 0.0000 1.0000 -0.0000
vn 0.0000 1.0000 -0.0000
vn 0.0000 1.0000 -0.0000
vn 0.0000 1.0000 -0.0000
vn 0.0000 1.0000 -0.0000
vn 0.0000 1.0000 -0.0000
vn 0.0000 1.0000 -0.0000
vn 0.0000 1.0000 -0.0000
vn 0.0000 1.0000 -0.0000
vn 0.0000 1.0000 -0.0000
vn 0.0000 1.0000 -0.0000
vn 0.0000 1.0000 -0.0000
vn 0.0000 1.0000 -0.0000
vn 0.0000 1.0000 -0.0000
vn 0.0000 1.0000 -0.0000
vn 0.0000 1.0000 -0.0000
vn 0.0000 1.0000 -0.0000
vn 0.0000 1.0000 -0.0000
vn 0.0000 1.0000 -0.0000
vn 0.0000 1.0000 -0.0000
vn 0.0000 1.0000 -0.0000
vn 0.0000 1.0000 -0.0000
vn 0.0000 1.0000 -0.0000
vn 0.0000 1.0000 -0.0000
vn 0.0000 1.0000 -0.0000
vn 0.0000 1.0000 -0.0000
vn 0.0000 1.0000 -0.0000
vn 0.0000 1.0000 -0.0000
vn 0.0000 1.0000 -0.0000
vn 0.0000 1.0000 -0.0000
vn 0.0000 1.0000 -0.0000
vn 0.0000 1.0000 -0.0000
vn 0.0000 1.0000 -0.0000
vn 0.0000 1.0000 -0.0000
vn 0.0000 1.0000 -0.0000
vn 0.0000 1.0000 -0.0000
vn 0.0000 1.0000 -0.0000
vn 0.0000 1.0000 -0.0000
vn 0.0000 1.0000 -0.0000
vn 0.0000 1.0000 -0.0000
vn 0.0000 1.0000 -0.0000
vn 0.0000 1.0000 -0.0000
vn 0.0000 1.0000 -0.0000
vn 0.0000 1.0000 -0.0000
vn 0.0000 1.0000 -0.0000
vn 0.0000 1.0000 -0.0000
vn 0.0000 1.0000 -0.0000
vn 0.0000 1.0000 -0.0000
vn 0.0000 1.0000 -0.0000
vn 0.0000 1.0000 -0.0000
vn 0.0000 1.0000 -0.0000
vn 0.0000 1.0000 -0.0000
# 216 vertex normals

g Cylinder001
f 9//37 11//38 10//39 
f 9//40 12//41 11//42 
f 9//43 13//44 12//45 
f 9//46 14//47 13//48 
f 9//49 15//50 14//51 
f 9//52 16//53 15//54 
f 9//55 17//56 16//57 
f 9//58 18//59 17//60 
f 9//61 19//62 18//63 
f 9//64 20//65 19//66 
f 9//67 21//68 20//69 
f 9//70 22//71 21//72 
f 9//73 23//74 22//75 
f 9//76 24//77 23//78 
f 9//79 25//80 24//81 
f 9//82 26//83 25//84 
f 9//85 27//86 26//87 
f 9//88 10//89 27//90 
f 10//91 29//92 28//93 
f 10//94 11//95 29//96 
f 11//97 30//98 29//99 
f 11//100 12//101 30//102 
f 12//103 31//104 30//105 
f 12//106 13//107 31//108 
f 13//109 32//110 31//111 
f 13//112 14//113 32//114 
f 14//115 33//116 32//117 
f 14//118 15//119 33//120 
f 15//121 34//122 33//123 
f 15//124 16//125 34//126 
f 16//127 35//128 34//129 
f 16//130 17//131 35//132 
f 17//133 36//134 35//135 
f 17//136 18//137 36//138 
f 18//139 37//140 36//141 
f 18//142 19//143 37//144 
f 19//145 38//146 37//147 
f 19//148 20//149 38//150 
f 20//151 39//152 38//153 
f 20//154 21//155 39//156 
f 21//157 40//158 39//159 
f 21//160 22//161 40//162 
f 22//163 41//164 40//165 
f 22//166 23//167 41//168 
f 23//169 42//170 41//171 
f 23//172 24//173 42//174 
f 24//175 43//176 42//177 
f 24//178 25//179 43//180 
f 25//181 44//182 43//183 
f 25//184 26//185 44//186 
f 26//187 45//188 44//189 
f 26//190 27//191 45//192 
f 27//193 28//194 45//195 
f 27//196 10//197 28//198 
f 46//199 28//200 29//201 
f 46//202 29//203 30//204 
f 46//205 30//206 31//207 
f 46//208 31//209 32//210 
f 46//211 32//212 33//213 
f 46//214 33//215 34//216 
f 46//217 34//218 35//219 
f 46//220 35//221 36//222 
f 46//223 36//224 37//225 
f 46//226 37//227 38//228 
f 46//229 38//230 39//231 
f 46//232 39//233 40//234 
f 46//235 40//236 41//237 
f 46//238 41//239 42//240 
f 46//241 42//242 43//243 
f 46//244 43//245 44//246 
f 46//247 44//248 45//249 
f 46//250 45//251 28//252 
# 72 faces

#
# object Cylinder002
#

v  0.0000 95.0000 44.6106
v  25.0000 95.0000 44.6106
v  23.4923 95.0000 36.0601
v  19.1511 95.0000 28.5409
v  12.5000 95.0000 22.9599
v  4.3412 95.0000 19.9904
v  -4.3412 95.0000 19.9904
v  -12.5000 95.0000 22.9599
v  -19.1511 95.0000 28.5409
v  -23.4923 95.0000 36.0601
v  -25.0000 95.0000 44.6106
v  -23.4923 95.0000 53.1611
v  -19.1511 95.0000 60.6803
v  -12.5000 95.0000 66.2612
v  -4.3412 95.0000 69.2308
v  4.3412 95.0000 69.2308
v  12.5000 95.0000 66.2612
v  19.1511 95.0000 60.6803
v  23.4923 95.0000 53.1611
v  25.0000 115.0000 44.6106
v  23.4923 115.0000 36.0601
v  19.1511 115.0000 28.5409
v  12.5000 115.0000 22.9599
v  4.3412 115.0000 19.9904
v  -4.3412 115.0000 19.9904
v  -12.5000 115.0000 22.9599
v  -19.1511 115.0000 28.5409
v  -23.4923 115.0000 36.0601
v  -25.0000 115.0000 44.6106
v  -23.4923 115.0000 53.1611
v  -19.1511 115.0000 60.6803
v  -12.5000 115.0000 66.2612
v  -4.3412 115.0000 69.2308
v  4.3412 115.0000 69.2308
v  12.5000 115.0000 66.2612
v  19.1511 115.0000 60.6803
v  23.4923 115.0000 53.1611
v  0.0000 115.0000 44.6106
# 38 vertices

vn 0.0000 -1.0000 -0.0000
vn 0.0000 -1.0000 -0.0000
vn 0.0000 -1.0000 -0.0000
vn 0.0000 -1.0000 -0.0000
vn 0.0000 -1.0000 -0.0000
vn 0.0000 -1.0000 -0.0000
vn 0.0000 -1.0000 -0.0000
vn 0.0000 -1.0000 -0.0000
vn 0.0000 -1.0000 -0.0000
vn 0.0000 -1.0000 -0.0000
vn 0.0000 -1.0000 -0.0000
vn 0.0000 -1.0000 -0.0000
vn 0.0000 -1.0000 -0.0000
vn 0.0000 -1.0000 -0.0000
vn 0.0000 -1.0000 -0.0000
vn 0.0000 -1.0000 -0.0000
vn 0.0000 -1.0000 -0.0000
vn 0.0000 -1.0000 -0.0000
vn 0.0000 -1.0000 -0.0000
vn 0.0000 -1.0000 -0.0000
vn 0.0000 -1.0000 -0.0000
vn 0.0000 -1.0000 -0.0000
vn 0.0000 -1.0000 -0.0000
vn 0.0000 -1.0000 -0.0000
vn 0.0000 -1.0000 -0.0000
vn 0.0000 -1.0000 -0.0000
vn 0.0000 -1.0000 -0.0000
vn 0.0000 -1.0000 -0.0000
vn 0.0000 -1.0000 -0.0000
vn 0.0000 -1.0000 -0.0000
vn 0.0000 -1.0000 -0.0000
vn 0.0000 -1.0000 -0.0000
vn 0.0000 -1.0000 -0.0000
vn 0.0000 -1.0000 -0.0000
vn 0.0000 -1.0000 -0.0000
vn 0.0000 -1.0000 -0.0000
vn 0.0000 -1.0000 -0.0000
vn 0.0000 -1.0000 -0.0000
vn 0.0000 -1.0000 -0.0000
vn 0.0000 -1.0000 -0.0000
vn 0.0000 -1.0000 -0.0000
vn 0.0000 -1.0000 -0.0000
vn 0.0000 -1.0000 -0.0000
vn 0.0000 -1.0000 -0.0000
vn 0.0000 -1.0000 -0.0000
vn 0.0000 -1.0000 -0.0000
vn 0.0000 -1.0000 -0.0000
vn 0.0000 -1.0000 -0.0000
vn 0.0000 -1.0000 -0.0000
vn 0.0000 -1.0000 -0.0000
vn 0.0000 -1.0000 -0.0000
vn 0.0000 -1.0000 -0.0000
vn 0.0000 -1.0000 -0.0000
vn 0.0000 -1.0000 -0.0000
vn 1.0000 0.0000 0.0000
vn 0.9397 0.0000 -0.3420
vn 1.0000 0.0000 0.0000
vn 1.0000 0.0000 0.0000
vn 0.9397 0.0000 -0.3420
vn 0.9397 0.0000 -0.3420
vn 0.9397 0.0000 -0.3420
vn 0.7660 0.0000 -0.6428
vn 0.9397 0.0000 -0.3420
vn 0.9397 0.0000 -0.3420
vn 0.7660 0.0000 -0.6428
vn 0.7660 0.0000 -0.6428
vn 0.7660 0.0000 -0.6428
vn 0.5000 0.0000 -0.8660
vn 0.7660 0.0000 -0.6428
vn 0.7660 0.0000 -0.6428
vn 0.5000 0.0000 -0.8660
vn 0.5000 0.0000 -0.8660
vn 0.5000 0.0000 -0.8660
vn 0.1736 0.0000 -0.9848
vn 0.5000 0.0000 -0.8660
vn 0.5000 0.0000 -0.8660
vn 0.1736 0.0000 -0.9848
vn 0.1736 0.0000 -0.9848
vn 0.1736 0.0000 -0.9848
vn -0.1736 0.0000 -0.9848
vn 0.1736 0.0000 -0.9848
vn 0.1736 0.0000 -0.9848
vn -0.1736 0.0000 -0.9848
vn -0.1736 0.0000 -0.9848
vn -0.1736 0.0000 -0.9848
vn -0.5000 0.0000 -0.8660
vn -0.1736 0.0000 -0.9848
vn -0.1736 0.0000 -0.9848
vn -0.5000 0.0000 -0.8660
vn -0.5000 0.0000 -0.8660
vn -0.5000 0.0000 -0.8660
vn -0.7660 0.0000 -0.6428
vn -0.5000 0.0000 -0.8660
vn -0.5000 0.0000 -0.8660
vn -0.7660 0.0000 -0.6428
vn -0.7660 0.0000 -0.6428
vn -0.7660 0.0000 -0.6428
vn -0.9397 0.0000 -0.3420
vn -0.7660 0.0000 -0.6428
vn -0.7660 0.0000 -0.6428
vn -0.9397 0.0000 -0.3420
vn -0.9397 0.0000 -0.3420
vn -0.9397 0.0000 -0.3420
vn -1.0000 0.0000 -0.0000
vn -0.9397 0.0000 -0.3420
vn -0.9397 0.0000 -0.3420
vn -1.0000 0.0000 -0.0000
vn -1.0000 0.0000 -0.0000
vn -1.0000 0.0000 -0.0000
vn -0.9397 0.0000 0.3420
vn -1.0000 0.0000 -0.0000
vn -1.0000 0.0000 -0.0000
vn -0.9397 0.0000 0.3420
vn -0.9397 0.0000 0.3420
vn -0.9397 0.0000 0.3420
vn -0.7660 0.0000 0.6428
vn -0.9397 0.0000 0.3420
vn -0.9397 0.0000 0.3420
vn -0.7660 0.0000 0.6428
vn -0.7660 0.0000 0.6428
vn -0.7660 0.0000 0.6428
vn -0.5000 0.0000 0.8660
vn -0.7660 0.0000 0.6428
vn -0.7660 0.0000 0.6428
vn -0.5000 0.0000 0.8660
vn -0.5000 0.0000 0.8660
vn -0.5000 0.0000 0.8660
vn -0.1736 0.0000 0.9848
vn -0.5000 0.0000 0.8660
vn -0.5000 0.0000 0.8660
vn -0.1736 0.0000 0.9848
vn -0.1736 0.0000 0.9848
vn -0.1736 0.0000 0.9848
vn 0.1736 0.0000 0.9848
vn -0.1736 0.0000 0.9848
vn -0.1736 0.0000 0.9848
vn 0.1736 0.0000 0.9848
vn 0.1736 0.0000 0.9848
vn 0.1736 0.0000 0.9848
vn 0.5000 0.0000 0.8660
vn 0.1736 0.0000 0.9848
vn 0.1736 0.0000 0.9848
vn 0.5000 0.0000 0.8660
vn 0.5000 0.0000 0.8660
vn 0.5000 0.0000 0.8660
vn 0.7660 0.0000 0.6428
vn 0.5000 0.0000 0.8660
vn 0.5000 0.0000 0.8660
vn 0.7660 0.0000 0.6428
vn 0.7660 0.0000 0.6428
vn 0.7660 0.0000 0.6428
vn 0.9397 0.0000 0.3420
vn 0.7660 0.0000 0.6428
vn 0.7660 0.0000 0.6428
vn 0.9397 0.0000 0.3420
vn 0.9397 0.0000 0.3420
vn 0.9397 0.0000 0.3420
vn 1.0000 0.0000 0.0000
vn 0.9397 0.0000 0.3420
vn 0.9397 0.0000 0.3420
vn 1.0000 0.0000 0.0000
vn 1.0000 0.0000 0.0000
vn 0.0000 1.0000 -0.0000
vn 0.0000 1.0000 -0.0000
vn 0.0000 1.0000 -0.0000
vn 0.0000 1.0000 -0.0000
vn 0.0000 1.0000 -0.0000
vn 0.0000 1.0000 -0.0000
vn 0.0000 1.0000 -0.0000
vn 0.0000 1.0000 -0.0000
vn 0.0000 1.0000 -0.0000
vn 0.0000 1.0000 -0.0000
vn 0.0000 1.0000 -0.0000
vn 0.0000 1.0000 -0.0000
vn 0.0000 1.0000 -0.0000
vn 0.0000 1.0000 -0.0000
vn 0.0000 1.0000 -0.0000
vn 0.0000 1.0000 -0.0000
vn 0.0000 1.0000 -0.0000
vn 0.0000 1.0000 -0.0000
vn 0.0000 1.0000 -0.0000
vn 0.0000 1.0000 -0.0000
vn 0.0000 1.0000 -0.0000
vn 0.0000 1.0000 -0.0000
vn 0.0000 1.0000 -0.0000
vn 0.0000 1.0000 -0.0000
vn 0.0000 1.0000 -0.0000
vn 0.0000 1.0000 -0.0000
vn 0.0000 1.0000 -0.0000
vn 0.0000 1.0000 -0.0000
vn 0.0000 1.0000 -0.0000
vn 0.0000 1.0000 -0.0000
vn 0.0000 1.0000 -0.0000
vn 0.0000 1.0000 -0.0000
vn 0.0000 1.0000 -0.0000
vn 0.0000 1.0000 -0.0000
vn 0.0000 1.0000 -0.0000
vn 0.0000 1.0000 -0.0000
vn 0.0000 1.0000 -0.0000
vn 0.0000 1.0000 -0.0000
vn 0.0000 1.0000 -0.0000
vn 0.0000 1.0000 -0.0000
vn 0.0000 1.0000 -0.0000
vn 0.0000 1.0000 -0.0000
vn 0.0000 1.0000 -0.0000
vn 0.0000 1.0000 -0.0000
vn 0.0000 1.0000 -0.0000
vn 0.0000 1.0000 -0.0000
vn 0.0000 1.0000 -0.0000
vn 0.0000 1.0000 -0.0000
vn 0.0000 1.0000 -0.0000
vn 0.0000 1.0000 -0.0000
vn 0.0000 1.0000 -0.0000
vn 0.0000 1.0000 -0.0000
vn 0.0000 1.0000 -0.0000
vn 0.0000 1.0000 -0.0000
# 216 vertex normals

g Cylinder002
f 47//253 49//254 48//255 
f 47//256 50//257 49//258 
f 47//259 51//260 50//261 
f 47//262 52//263 51//264 
f 47//265 53//266 52//267 
f 47//268 54//269 53//270 
f 47//271 55//272 54//273 
f 47//274 56//275 55//276 
f 47//277 57//278 56//279 
f 47//280 58//281 57//282 
f 47//283 59//284 58//285 
f 47//286 60//287 59//288 
f 47//289 61//290 60//291 
f 47//292 62//293 61//294 
f 47//295 63//296 62//297 
f 47//298 64//299 63//300 
f 47//301 65//302 64//303 
f 47//304 48//305 65//306 
f 48//307 67//308 66//309 
f 48//310 49//311 67//312 
f 49//313 68//314 67//315 
f 49//316 50//317 68//318 
f 50//319 69//320 68//321 
f 50//322 51//323 69//324 
f 51//325 70//326 69//327 
f 51//328 52//329 70//330 
f 52//331 71//332 70//333 
f 52//334 53//335 71//336 
f 53//337 72//338 71//339 
f 53//340 54//341 72//342 
f 54//343 73//344 72//345 
f 54//346 55//347 73//348 
f 55//349 74//350 73//351 
f 55//352 56//353 74//354 
f 56//355 75//356 74//357 
f 56//358 57//359 75//360 
f 57//361 76//362 75//363 
f 57//364 58//365 76//366 
f 58//367 77//368 76//369 
f 58//370 59//371 77//372 
f 59//373 78//374 77//375 
f 59//376 60//377 78//378 
f 60//379 79//380 78//381 
f 60//382 61//383 79//384 
f 61//385 80//386 79//387 
f 61//388 62//389 80//390 
f 62//391 81//392 80//393 
f 62//394 63//395 81//396 
f 63//397 82//398 81//399 
f 63//400 64//401 82//402 
f 64//403 83//404 82//405 
f 64//406 65//407 83//408 
f 65//409 66//410 83//411 
f 65//412 48//413 66//414 
f 84//415 66//416 67//417 
f 84//418 67//419 68//420 
f 84//421 68//422 69//423 
f 84//424 69//425 70//426 
f 84//427 70//428 71//429 
f 84//430 71//431 72//432 
f 84//433 72//434 73//435 
f 84//436 73//437 74//438 
f 84//439 74//440 75//441 
f 84//442 75//443 76//444 
f 84//445 76//446 77//447 
f 84//448 77//449 78//450 
f 84//451 78//452 79//453 
f 84//454 79//455 80//456 
f 84//457 80//458 81//459 
f 84//460 81//461 82//462 
f 84//463 82//464 83//465 
f 84//466 83//467 66//468 
# 72 faces

